<mxfile host="app.diagrams.net" modified="2024-03-08T05:37:17.167Z" agent="Mozilla/5.0 (Windows NT 10.0; Win64; x64) AppleWebKit/537.36 (KHTML, like Gecko) Chrome/122.0.0.0 Safari/537.36" etag="EXSZzT7KEsXMUA37JCs_" version="24.0.1" type="device">
  <diagram name="第 1 页" id="iJkh0kKC2v8vpnSHeVoI">
    <mxGraphModel dx="1393" dy="1071" grid="1" gridSize="10" guides="1" tooltips="1" connect="1" arrows="1" fold="1" page="1" pageScale="1" pageWidth="2339" pageHeight="3300" math="0" shadow="0">
      <root>
        <mxCell id="0" />
        <mxCell id="1" parent="0" />
        <mxCell id="VO92zJyQnFq2b8o-OkfB-1" value="auction" style="rounded=1;arcSize=10;whiteSpace=wrap;html=1;align=center;" vertex="1" parent="1">
          <mxGeometry x="630" y="300" width="100" height="40" as="geometry" />
        </mxCell>
        <mxCell id="VO92zJyQnFq2b8o-OkfB-2" value="&lt;u&gt;auction_id&lt;/u&gt;" style="ellipse;whiteSpace=wrap;html=1;align=center;" vertex="1" parent="1">
          <mxGeometry x="480" y="340" width="100" height="40" as="geometry" />
        </mxCell>
        <mxCell id="VO92zJyQnFq2b8o-OkfB-11" value="" style="endArrow=none;html=1;rounded=0;" edge="1" parent="1">
          <mxGeometry relative="1" as="geometry">
            <mxPoint x="673" y="300" as="sourcePoint" />
            <mxPoint x="673" y="240" as="targetPoint" />
          </mxGeometry>
        </mxCell>
        <mxCell id="VO92zJyQnFq2b8o-OkfB-12" value="name" style="ellipse;whiteSpace=wrap;html=1;align=center;" vertex="1" parent="1">
          <mxGeometry x="490" y="237" width="100" height="40" as="geometry" />
        </mxCell>
        <mxCell id="VO92zJyQnFq2b8o-OkfB-13" value="duration" style="ellipse;whiteSpace=wrap;html=1;align=center;" vertex="1" parent="1">
          <mxGeometry x="623" y="200" width="100" height="40" as="geometry" />
        </mxCell>
        <mxCell id="VO92zJyQnFq2b8o-OkfB-14" value="start time" style="ellipse;whiteSpace=wrap;html=1;align=center;" vertex="1" parent="1">
          <mxGeometry x="530" y="142" width="100" height="40" as="geometry" />
        </mxCell>
        <mxCell id="VO92zJyQnFq2b8o-OkfB-15" value="end time" style="ellipse;whiteSpace=wrap;html=1;align=center;" vertex="1" parent="1">
          <mxGeometry x="710" y="140" width="100" height="40" as="geometry" />
        </mxCell>
        <mxCell id="VO92zJyQnFq2b8o-OkfB-16" value="manager" style="rounded=1;arcSize=10;whiteSpace=wrap;html=1;align=center;" vertex="1" parent="1">
          <mxGeometry x="974" y="300" width="100" height="40" as="geometry" />
        </mxCell>
        <mxCell id="VO92zJyQnFq2b8o-OkfB-17" value="oversee" style="shape=rhombus;perimeter=rhombusPerimeter;whiteSpace=wrap;html=1;align=center;" vertex="1" parent="1">
          <mxGeometry x="797" y="289" width="120" height="60" as="geometry" />
        </mxCell>
        <mxCell id="VO92zJyQnFq2b8o-OkfB-18" value="" style="shape=link;html=1;rounded=0;" edge="1" parent="1">
          <mxGeometry relative="1" as="geometry">
            <mxPoint x="730" y="319.5" as="sourcePoint" />
            <mxPoint x="800" y="319.5" as="targetPoint" />
          </mxGeometry>
        </mxCell>
        <mxCell id="VO92zJyQnFq2b8o-OkfB-19" value="M" style="resizable=0;html=1;whiteSpace=wrap;align=left;verticalAlign=bottom;" connectable="0" vertex="1" parent="VO92zJyQnFq2b8o-OkfB-18">
          <mxGeometry x="-1" relative="1" as="geometry" />
        </mxCell>
        <mxCell id="VO92zJyQnFq2b8o-OkfB-20" value="" style="resizable=0;html=1;whiteSpace=wrap;align=right;verticalAlign=bottom;" connectable="0" vertex="1" parent="VO92zJyQnFq2b8o-OkfB-18">
          <mxGeometry x="1" relative="1" as="geometry" />
        </mxCell>
        <mxCell id="VO92zJyQnFq2b8o-OkfB-24" value="" style="endArrow=none;html=1;rounded=0;" edge="1" parent="1">
          <mxGeometry relative="1" as="geometry">
            <mxPoint x="917" y="319" as="sourcePoint" />
            <mxPoint x="974" y="318.5" as="targetPoint" />
          </mxGeometry>
        </mxCell>
        <mxCell id="VO92zJyQnFq2b8o-OkfB-25" value="N" style="resizable=0;html=1;whiteSpace=wrap;align=right;verticalAlign=bottom;" connectable="0" vertex="1" parent="VO92zJyQnFq2b8o-OkfB-24">
          <mxGeometry x="1" relative="1" as="geometry" />
        </mxCell>
        <mxCell id="VO92zJyQnFq2b8o-OkfB-26" value="&lt;u&gt;manager_id&lt;/u&gt;" style="ellipse;whiteSpace=wrap;html=1;align=center;" vertex="1" parent="1">
          <mxGeometry x="940" y="162" width="100" height="40" as="geometry" />
        </mxCell>
        <mxCell id="VO92zJyQnFq2b8o-OkfB-27" value="name" style="ellipse;whiteSpace=wrap;html=1;align=center;" vertex="1" parent="1">
          <mxGeometry x="877" y="222" width="100" height="40" as="geometry" />
        </mxCell>
        <mxCell id="VO92zJyQnFq2b8o-OkfB-28" value="phone number" style="ellipse;whiteSpace=wrap;html=1;align=center;" vertex="1" parent="1">
          <mxGeometry x="1050" y="140" width="100" height="40" as="geometry" />
        </mxCell>
        <mxCell id="VO92zJyQnFq2b8o-OkfB-29" value="job description" style="ellipse;whiteSpace=wrap;html=1;align=center;" vertex="1" parent="1">
          <mxGeometry x="1107" y="200" width="100" height="40" as="geometry" />
        </mxCell>
        <mxCell id="VO92zJyQnFq2b8o-OkfB-31" value="email" style="ellipse;shape=doubleEllipse;margin=3;whiteSpace=wrap;html=1;align=center;" vertex="1" parent="1">
          <mxGeometry x="1110" y="260" width="100" height="40" as="geometry" />
        </mxCell>
        <mxCell id="VO92zJyQnFq2b8o-OkfB-32" value="buyer" style="rounded=1;arcSize=10;whiteSpace=wrap;html=1;align=center;" vertex="1" parent="1">
          <mxGeometry x="980" y="570" width="100" height="40" as="geometry" />
        </mxCell>
        <mxCell id="VO92zJyQnFq2b8o-OkfB-33" value="&lt;u&gt;buyer_id&lt;/u&gt;" style="ellipse;whiteSpace=wrap;html=1;align=center;" vertex="1" parent="1">
          <mxGeometry x="864" y="538" width="100" height="40" as="geometry" />
        </mxCell>
        <mxCell id="VO92zJyQnFq2b8o-OkfB-34" value="name" style="ellipse;whiteSpace=wrap;html=1;align=center;" vertex="1" parent="1">
          <mxGeometry x="891" y="679" width="100" height="40" as="geometry" />
        </mxCell>
        <mxCell id="VO92zJyQnFq2b8o-OkfB-35" value="phone number" style="ellipse;whiteSpace=wrap;html=1;align=center;" vertex="1" parent="1">
          <mxGeometry x="825" y="639" width="100" height="40" as="geometry" />
        </mxCell>
        <mxCell id="VO92zJyQnFq2b8o-OkfB-36" value="address" style="ellipse;whiteSpace=wrap;html=1;align=center;direction=west;" vertex="1" parent="1">
          <mxGeometry x="872" y="469" width="100" height="40" as="geometry" />
        </mxCell>
        <mxCell id="VO92zJyQnFq2b8o-OkfB-38" value="country" style="ellipse;whiteSpace=wrap;html=1;align=center;" vertex="1" parent="1">
          <mxGeometry x="755" y="538" width="100" height="40" as="geometry" />
        </mxCell>
        <mxCell id="VO92zJyQnFq2b8o-OkfB-39" value="city" style="ellipse;whiteSpace=wrap;html=1;align=center;" vertex="1" parent="1">
          <mxGeometry x="742" y="400" width="100" height="40" as="geometry" />
        </mxCell>
        <mxCell id="VO92zJyQnFq2b8o-OkfB-40" value="postcode" style="ellipse;whiteSpace=wrap;html=1;align=center;" vertex="1" parent="1">
          <mxGeometry x="742" y="469" width="100" height="40" as="geometry" />
        </mxCell>
        <mxCell id="VO92zJyQnFq2b8o-OkfB-41" value="payment method" style="ellipse;shape=doubleEllipse;margin=3;whiteSpace=wrap;html=1;align=center;" vertex="1" parent="1">
          <mxGeometry x="780" y="600" width="100" height="40" as="geometry" />
        </mxCell>
        <mxCell id="VO92zJyQnFq2b8o-OkfB-42" value="invite" style="shape=rhombus;perimeter=rhombusPerimeter;whiteSpace=wrap;html=1;align=center;" vertex="1" parent="1">
          <mxGeometry x="964" y="420" width="120" height="60" as="geometry" />
        </mxCell>
        <mxCell id="VO92zJyQnFq2b8o-OkfB-43" value="" style="shape=link;html=1;rounded=0;entryX=0.5;entryY=1;entryDx=0;entryDy=0;" edge="1" parent="1" target="VO92zJyQnFq2b8o-OkfB-42">
          <mxGeometry relative="1" as="geometry">
            <mxPoint x="1023.5" y="570" as="sourcePoint" />
            <mxPoint x="1024" y="510" as="targetPoint" />
          </mxGeometry>
        </mxCell>
        <mxCell id="VO92zJyQnFq2b8o-OkfB-44" value="M" style="resizable=0;html=1;whiteSpace=wrap;align=left;verticalAlign=bottom;" connectable="0" vertex="1" parent="VO92zJyQnFq2b8o-OkfB-43">
          <mxGeometry x="-1" relative="1" as="geometry" />
        </mxCell>
        <mxCell id="VO92zJyQnFq2b8o-OkfB-45" value="" style="resizable=0;html=1;whiteSpace=wrap;align=right;verticalAlign=bottom;" connectable="0" vertex="1" parent="VO92zJyQnFq2b8o-OkfB-43">
          <mxGeometry x="1" relative="1" as="geometry" />
        </mxCell>
        <mxCell id="VO92zJyQnFq2b8o-OkfB-46" value="" style="endArrow=none;html=1;rounded=0;exitX=0.5;exitY=1;exitDx=0;exitDy=0;" edge="1" parent="1" source="VO92zJyQnFq2b8o-OkfB-16">
          <mxGeometry relative="1" as="geometry">
            <mxPoint x="1024" y="360" as="sourcePoint" />
            <mxPoint x="1023.5" y="419" as="targetPoint" />
          </mxGeometry>
        </mxCell>
        <mxCell id="VO92zJyQnFq2b8o-OkfB-47" value="N" style="resizable=0;html=1;whiteSpace=wrap;align=right;verticalAlign=bottom;" connectable="0" vertex="1" parent="VO92zJyQnFq2b8o-OkfB-46">
          <mxGeometry x="1" relative="1" as="geometry" />
        </mxCell>
        <mxCell id="BtDvIv-4-z1xUH_ccuP0-1" value="place" style="shape=rhombus;perimeter=rhombusPerimeter;whiteSpace=wrap;html=1;align=center;" vertex="1" parent="1">
          <mxGeometry x="970" y="710" width="120" height="60" as="geometry" />
        </mxCell>
        <mxCell id="BtDvIv-4-z1xUH_ccuP0-2" value="orders" style="rounded=1;arcSize=10;whiteSpace=wrap;html=1;align=center;" vertex="1" parent="1">
          <mxGeometry x="984" y="860" width="100" height="40" as="geometry" />
        </mxCell>
        <mxCell id="BtDvIv-4-z1xUH_ccuP0-3" value="" style="shape=link;html=1;rounded=0;entryX=0.5;entryY=1;entryDx=0;entryDy=0;" edge="1" parent="1">
          <mxGeometry relative="1" as="geometry">
            <mxPoint x="1029.5" y="860" as="sourcePoint" />
            <mxPoint x="1030" y="770" as="targetPoint" />
          </mxGeometry>
        </mxCell>
        <mxCell id="BtDvIv-4-z1xUH_ccuP0-4" value="N" style="resizable=0;html=1;whiteSpace=wrap;align=left;verticalAlign=bottom;" connectable="0" vertex="1" parent="BtDvIv-4-z1xUH_ccuP0-3">
          <mxGeometry x="-1" relative="1" as="geometry" />
        </mxCell>
        <mxCell id="BtDvIv-4-z1xUH_ccuP0-5" value="" style="resizable=0;html=1;whiteSpace=wrap;align=right;verticalAlign=bottom;" connectable="0" vertex="1" parent="BtDvIv-4-z1xUH_ccuP0-3">
          <mxGeometry x="1" relative="1" as="geometry" />
        </mxCell>
        <mxCell id="BtDvIv-4-z1xUH_ccuP0-6" value="&lt;u&gt;order_id&lt;/u&gt;" style="ellipse;whiteSpace=wrap;html=1;align=center;" vertex="1" parent="1">
          <mxGeometry x="1140" y="960" width="100" height="40" as="geometry" />
        </mxCell>
        <mxCell id="BtDvIv-4-z1xUH_ccuP0-7" value="timestamp&lt;span style=&quot;color: rgba(0, 0, 0, 0); font-family: monospace; font-size: 0px; text-align: start; text-wrap: nowrap;&quot;&gt;%3CmxGraphModel%3E%3Croot%3E%3CmxCell%20id%3D%220%22%2F%3E%3CmxCell%20id%3D%221%22%20parent%3D%220%22%2F%3E%3CmxCell%20id%3D%222%22%20value%3D%22name%22%20style%3D%22ellipse%3BwhiteSpace%3Dwrap%3Bhtml%3D1%3Balign%3Dcenter%3B%22%20vertex%3D%221%22%20parent%3D%221%22%3E%3CmxGeometry%20x%3D%22920%22%20y%3D%22650%22%20width%3D%22100%22%20height%3D%2240%22%20as%3D%22geometry%22%2F%3E%3C%2FmxCell%3E%3C%2Froot%3E%3C%2FmxGraphModel%3E&lt;/span&gt;" style="ellipse;whiteSpace=wrap;html=1;align=center;" vertex="1" parent="1">
          <mxGeometry x="1127" y="907" width="100" height="40" as="geometry" />
        </mxCell>
        <mxCell id="BtDvIv-4-z1xUH_ccuP0-8" value="total price" style="ellipse;whiteSpace=wrap;html=1;align=center;" vertex="1" parent="1">
          <mxGeometry x="1042" y="980" width="100" height="40" as="geometry" />
        </mxCell>
        <mxCell id="BtDvIv-4-z1xUH_ccuP0-9" value="" style="endArrow=none;html=1;rounded=0;entryX=0.5;entryY=0;entryDx=0;entryDy=0;" edge="1" parent="1" target="BtDvIv-4-z1xUH_ccuP0-1">
          <mxGeometry relative="1" as="geometry">
            <mxPoint x="1029.5" y="610" as="sourcePoint" />
            <mxPoint x="1029.5" y="680" as="targetPoint" />
          </mxGeometry>
        </mxCell>
        <mxCell id="BtDvIv-4-z1xUH_ccuP0-10" value="1" style="resizable=0;html=1;whiteSpace=wrap;align=right;verticalAlign=bottom;" connectable="0" vertex="1" parent="BtDvIv-4-z1xUH_ccuP0-9">
          <mxGeometry x="1" relative="1" as="geometry" />
        </mxCell>
        <mxCell id="BtDvIv-4-z1xUH_ccuP0-11" value="items" style="rounded=1;arcSize=10;whiteSpace=wrap;html=1;align=center;" vertex="1" parent="1">
          <mxGeometry x="623" y="860" width="100" height="40" as="geometry" />
        </mxCell>
        <mxCell id="BtDvIv-4-z1xUH_ccuP0-12" value="contain" style="shape=rhombus;perimeter=rhombusPerimeter;whiteSpace=wrap;html=1;align=center;" vertex="1" parent="1">
          <mxGeometry x="804" y="850" width="120" height="60" as="geometry" />
        </mxCell>
        <mxCell id="BtDvIv-4-z1xUH_ccuP0-13" value="number of items" style="ellipse;whiteSpace=wrap;html=1;align=center;" vertex="1" parent="1">
          <mxGeometry x="940" y="970" width="100" height="40" as="geometry" />
        </mxCell>
        <mxCell id="BtDvIv-4-z1xUH_ccuP0-14" value="" style="shape=link;html=1;rounded=0;" edge="1" parent="1">
          <mxGeometry relative="1" as="geometry">
            <mxPoint x="920" y="880" as="sourcePoint" />
            <mxPoint x="984" y="879.5" as="targetPoint" />
          </mxGeometry>
        </mxCell>
        <mxCell id="BtDvIv-4-z1xUH_ccuP0-15" value="1" style="resizable=0;html=1;whiteSpace=wrap;align=left;verticalAlign=bottom;" connectable="0" vertex="1" parent="BtDvIv-4-z1xUH_ccuP0-14">
          <mxGeometry x="-1" relative="1" as="geometry" />
        </mxCell>
        <mxCell id="BtDvIv-4-z1xUH_ccuP0-16" value="" style="resizable=0;html=1;whiteSpace=wrap;align=right;verticalAlign=bottom;" connectable="0" vertex="1" parent="BtDvIv-4-z1xUH_ccuP0-14">
          <mxGeometry x="1" relative="1" as="geometry" />
        </mxCell>
        <mxCell id="BtDvIv-4-z1xUH_ccuP0-17" value="" style="endArrow=none;html=1;rounded=0;entryX=0;entryY=0.5;entryDx=0;entryDy=0;" edge="1" parent="1">
          <mxGeometry relative="1" as="geometry">
            <mxPoint x="723" y="879.5" as="sourcePoint" />
            <mxPoint x="805" y="880" as="targetPoint" />
          </mxGeometry>
        </mxCell>
        <mxCell id="BtDvIv-4-z1xUH_ccuP0-18" value="N" style="resizable=0;html=1;whiteSpace=wrap;align=right;verticalAlign=bottom;" connectable="0" vertex="1" parent="BtDvIv-4-z1xUH_ccuP0-17">
          <mxGeometry x="1" relative="1" as="geometry" />
        </mxCell>
        <mxCell id="BtDvIv-4-z1xUH_ccuP0-19" value="&lt;u&gt;item_id&lt;/u&gt;" style="ellipse;whiteSpace=wrap;html=1;align=center;" vertex="1" parent="1">
          <mxGeometry x="558" y="770" width="100" height="40" as="geometry" />
        </mxCell>
        <mxCell id="BtDvIv-4-z1xUH_ccuP0-20" value="name" style="ellipse;whiteSpace=wrap;html=1;align=center;" vertex="1" parent="1">
          <mxGeometry x="470" y="930" width="100" height="40" as="geometry" />
        </mxCell>
        <mxCell id="BtDvIv-4-z1xUH_ccuP0-21" value="price" style="ellipse;whiteSpace=wrap;html=1;align=center;" vertex="1" parent="1">
          <mxGeometry x="742" y="940" width="100" height="40" as="geometry" />
        </mxCell>
        <mxCell id="BtDvIv-4-z1xUH_ccuP0-22" value="description" style="ellipse;whiteSpace=wrap;html=1;align=center;" vertex="1" parent="1">
          <mxGeometry x="509" y="1010" width="100" height="40" as="geometry" />
        </mxCell>
        <mxCell id="BtDvIv-4-z1xUH_ccuP0-23" value="produce year" style="ellipse;whiteSpace=wrap;html=1;align=center;" vertex="1" parent="1">
          <mxGeometry x="425" y="1093" width="100" height="40" as="geometry" />
        </mxCell>
        <mxCell id="BtDvIv-4-z1xUH_ccuP0-24" value="who made it" style="ellipse;whiteSpace=wrap;html=1;align=center;" vertex="1" parent="1">
          <mxGeometry x="509" y="1140" width="100" height="40" as="geometry" />
        </mxCell>
        <mxCell id="BtDvIv-4-z1xUH_ccuP0-25" value=" previous auction price" style="ellipse;whiteSpace=wrap;html=1;align=center;" vertex="1" parent="1">
          <mxGeometry x="610" y="1109" width="100" height="40" as="geometry" />
        </mxCell>
        <mxCell id="BtDvIv-4-z1xUH_ccuP0-27" value="display" style="shape=rhombus;perimeter=rhombusPerimeter;whiteSpace=wrap;html=1;align=center;" vertex="1" parent="1">
          <mxGeometry x="612" y="560" width="120" height="60" as="geometry" />
        </mxCell>
        <mxCell id="BtDvIv-4-z1xUH_ccuP0-28" value="" style="shape=link;html=1;rounded=0;exitX=0.5;exitY=0;exitDx=0;exitDy=0;" edge="1" parent="1" source="BtDvIv-4-z1xUH_ccuP0-11">
          <mxGeometry relative="1" as="geometry">
            <mxPoint x="672.5" y="700" as="sourcePoint" />
            <mxPoint x="672.5" y="620" as="targetPoint" />
          </mxGeometry>
        </mxCell>
        <mxCell id="BtDvIv-4-z1xUH_ccuP0-29" value="M" style="resizable=0;html=1;whiteSpace=wrap;align=left;verticalAlign=bottom;" connectable="0" vertex="1" parent="BtDvIv-4-z1xUH_ccuP0-28">
          <mxGeometry x="-1" relative="1" as="geometry" />
        </mxCell>
        <mxCell id="BtDvIv-4-z1xUH_ccuP0-30" value="" style="resizable=0;html=1;whiteSpace=wrap;align=right;verticalAlign=bottom;" connectable="0" vertex="1" parent="BtDvIv-4-z1xUH_ccuP0-28">
          <mxGeometry x="1" relative="1" as="geometry" />
        </mxCell>
        <mxCell id="BtDvIv-4-z1xUH_ccuP0-33" value="available status" style="ellipse;whiteSpace=wrap;html=1;align=center;" vertex="1" parent="1">
          <mxGeometry x="723" y="780" width="100" height="40" as="geometry" />
        </mxCell>
        <mxCell id="BtDvIv-4-z1xUH_ccuP0-34" value="number of items displayed" style="ellipse;whiteSpace=wrap;html=1;align=center;" vertex="1" parent="1">
          <mxGeometry x="490" y="640" width="100" height="40" as="geometry" />
        </mxCell>
        <mxCell id="BtDvIv-4-z1xUH_ccuP0-35" value="" style="shape=link;html=1;rounded=0;exitX=0.5;exitY=0;exitDx=0;exitDy=0;" edge="1" parent="1">
          <mxGeometry relative="1" as="geometry">
            <mxPoint x="673" y="560" as="sourcePoint" />
            <mxPoint x="673" y="340" as="targetPoint" />
          </mxGeometry>
        </mxCell>
        <mxCell id="BtDvIv-4-z1xUH_ccuP0-36" value="N" style="resizable=0;html=1;whiteSpace=wrap;align=left;verticalAlign=bottom;" connectable="0" vertex="1" parent="BtDvIv-4-z1xUH_ccuP0-35">
          <mxGeometry x="-1" relative="1" as="geometry" />
        </mxCell>
        <mxCell id="BtDvIv-4-z1xUH_ccuP0-37" value="" style="resizable=0;html=1;whiteSpace=wrap;align=right;verticalAlign=bottom;" connectable="0" vertex="1" parent="BtDvIv-4-z1xUH_ccuP0-35">
          <mxGeometry x="1" relative="1" as="geometry" />
        </mxCell>
        <mxCell id="BtDvIv-4-z1xUH_ccuP0-40" value="provide" style="shape=rhombus;double=1;perimeter=rhombusPerimeter;whiteSpace=wrap;html=1;align=center;" vertex="1" parent="1">
          <mxGeometry x="415" y="849" width="120" height="60" as="geometry" />
        </mxCell>
        <mxCell id="BtDvIv-4-z1xUH_ccuP0-41" value="seller" style="shape=ext;margin=3;double=1;whiteSpace=wrap;html=1;align=center;" vertex="1" parent="1">
          <mxGeometry x="226" y="860" width="100" height="40" as="geometry" />
        </mxCell>
        <mxCell id="BtDvIv-4-z1xUH_ccuP0-42" value="&lt;u&gt;seller_id&lt;/u&gt;" style="ellipse;whiteSpace=wrap;html=1;align=center;" vertex="1" parent="1">
          <mxGeometry x="100" y="960" width="100" height="40" as="geometry" />
        </mxCell>
        <mxCell id="BtDvIv-4-z1xUH_ccuP0-43" value="visible status" style="ellipse;whiteSpace=wrap;html=1;align=center;" vertex="1" parent="1">
          <mxGeometry x="230" y="970" width="100" height="40" as="geometry" />
        </mxCell>
        <mxCell id="BtDvIv-4-z1xUH_ccuP0-44" value="name" style="ellipse;whiteSpace=wrap;html=1;align=center;" vertex="1" parent="1">
          <mxGeometry x="80" y="860" width="100" height="40" as="geometry" />
        </mxCell>
        <mxCell id="BtDvIv-4-z1xUH_ccuP0-45" value="" style="endArrow=none;html=1;rounded=0;exitX=0.2;exitY=1;exitDx=0;exitDy=0;exitPerimeter=0;" edge="1" parent="1">
          <mxGeometry relative="1" as="geometry">
            <mxPoint x="529" y="1046" as="sourcePoint" />
            <mxPoint x="499" y="1096" as="targetPoint" />
          </mxGeometry>
        </mxCell>
        <mxCell id="BtDvIv-4-z1xUH_ccuP0-46" value="" style="endArrow=none;html=1;rounded=0;exitX=0.2;exitY=1;exitDx=0;exitDy=0;exitPerimeter=0;entryX=0.5;entryY=0;entryDx=0;entryDy=0;" edge="1" parent="1" target="BtDvIv-4-z1xUH_ccuP0-24">
          <mxGeometry relative="1" as="geometry">
            <mxPoint x="559" y="1050" as="sourcePoint" />
            <mxPoint x="529" y="1100" as="targetPoint" />
          </mxGeometry>
        </mxCell>
        <mxCell id="BtDvIv-4-z1xUH_ccuP0-47" value="" style="endArrow=none;html=1;rounded=0;exitX=1;exitY=1;exitDx=0;exitDy=0;" edge="1" parent="1" source="BtDvIv-4-z1xUH_ccuP0-22">
          <mxGeometry relative="1" as="geometry">
            <mxPoint x="611" y="1060" as="sourcePoint" />
            <mxPoint x="649" y="1110" as="targetPoint" />
          </mxGeometry>
        </mxCell>
        <mxCell id="BtDvIv-4-z1xUH_ccuP0-49" value="" style="endArrow=none;html=1;rounded=0;entryX=0;entryY=1;entryDx=0;entryDy=0;" edge="1" parent="1">
          <mxGeometry relative="1" as="geometry">
            <mxPoint x="880" y="479" as="sourcePoint" />
            <mxPoint x="810.0046609406726" y="439.0021356237311" as="targetPoint" />
          </mxGeometry>
        </mxCell>
        <mxCell id="BtDvIv-4-z1xUH_ccuP0-51" value="" style="shape=link;html=1;rounded=0;" edge="1" parent="1">
          <mxGeometry relative="1" as="geometry">
            <mxPoint x="532" y="879.5" as="sourcePoint" />
            <mxPoint x="622" y="880" as="targetPoint" />
          </mxGeometry>
        </mxCell>
        <mxCell id="BtDvIv-4-z1xUH_ccuP0-52" value="N" style="resizable=0;html=1;whiteSpace=wrap;align=left;verticalAlign=bottom;" connectable="0" vertex="1" parent="BtDvIv-4-z1xUH_ccuP0-51">
          <mxGeometry x="-1" relative="1" as="geometry" />
        </mxCell>
        <mxCell id="BtDvIv-4-z1xUH_ccuP0-53" value="" style="resizable=0;html=1;whiteSpace=wrap;align=right;verticalAlign=bottom;" connectable="0" vertex="1" parent="BtDvIv-4-z1xUH_ccuP0-51">
          <mxGeometry x="1" relative="1" as="geometry" />
        </mxCell>
        <mxCell id="BtDvIv-4-z1xUH_ccuP0-54" value="" style="shape=link;html=1;rounded=0;" edge="1" parent="1">
          <mxGeometry relative="1" as="geometry">
            <mxPoint x="417" y="879.5" as="sourcePoint" />
            <mxPoint x="327" y="880.5" as="targetPoint" />
          </mxGeometry>
        </mxCell>
        <mxCell id="BtDvIv-4-z1xUH_ccuP0-55" value="1" style="resizable=0;html=1;whiteSpace=wrap;align=left;verticalAlign=bottom;" connectable="0" vertex="1" parent="BtDvIv-4-z1xUH_ccuP0-54">
          <mxGeometry x="-1" relative="1" as="geometry">
            <mxPoint x="-7" as="offset" />
          </mxGeometry>
        </mxCell>
        <mxCell id="BtDvIv-4-z1xUH_ccuP0-56" value="" style="resizable=0;html=1;whiteSpace=wrap;align=right;verticalAlign=bottom;" connectable="0" vertex="1" parent="BtDvIv-4-z1xUH_ccuP0-54">
          <mxGeometry x="1" relative="1" as="geometry" />
        </mxCell>
        <mxCell id="BtDvIv-4-z1xUH_ccuP0-57" value="" style="endArrow=none;html=1;rounded=0;entryX=0.98;entryY=0.285;entryDx=0;entryDy=0;entryPerimeter=0;exitX=1;exitY=0;exitDx=0;exitDy=0;" edge="1" parent="1" source="VO92zJyQnFq2b8o-OkfB-36">
          <mxGeometry relative="1" as="geometry">
            <mxPoint x="892" y="499" as="sourcePoint" />
            <mxPoint x="852" y="550.4000000000001" as="targetPoint" />
          </mxGeometry>
        </mxCell>
        <mxCell id="BtDvIv-4-z1xUH_ccuP0-58" value="" style="endArrow=none;html=1;rounded=0;entryX=1;entryY=0.5;entryDx=0;entryDy=0;" edge="1" parent="1" source="VO92zJyQnFq2b8o-OkfB-36" target="VO92zJyQnFq2b8o-OkfB-40">
          <mxGeometry relative="1" as="geometry">
            <mxPoint x="872" y="489" as="sourcePoint" />
            <mxPoint x="837" y="538.0000000000001" as="targetPoint" />
          </mxGeometry>
        </mxCell>
        <mxCell id="BtDvIv-4-z1xUH_ccuP0-59" value="sign" style="shape=rhombus;perimeter=rhombusPerimeter;whiteSpace=wrap;html=1;align=center;" vertex="1" parent="1">
          <mxGeometry x="1170" y="620" width="120" height="60" as="geometry" />
        </mxCell>
        <mxCell id="BtDvIv-4-z1xUH_ccuP0-62" value="" style="endArrow=none;html=1;rounded=0;entryX=0.5;entryY=0;entryDx=0;entryDy=0;" edge="1" parent="1">
          <mxGeometry relative="1" as="geometry">
            <mxPoint x="1230" y="319" as="sourcePoint" />
            <mxPoint x="1230" y="619" as="targetPoint" />
          </mxGeometry>
        </mxCell>
        <mxCell id="BtDvIv-4-z1xUH_ccuP0-63" value="M" style="resizable=0;html=1;whiteSpace=wrap;align=right;verticalAlign=bottom;" connectable="0" vertex="1" parent="BtDvIv-4-z1xUH_ccuP0-62">
          <mxGeometry x="1" relative="1" as="geometry" />
        </mxCell>
        <mxCell id="BtDvIv-4-z1xUH_ccuP0-64" value="" style="endArrow=none;html=1;rounded=0;" edge="1" parent="1">
          <mxGeometry relative="1" as="geometry">
            <mxPoint x="1074" y="318.5" as="sourcePoint" />
            <mxPoint x="1230" y="319" as="targetPoint" />
          </mxGeometry>
        </mxCell>
        <mxCell id="BtDvIv-4-z1xUH_ccuP0-66" value="" style="shape=link;html=1;rounded=0;" edge="1" parent="1">
          <mxGeometry relative="1" as="geometry">
            <mxPoint x="1230" y="680" as="sourcePoint" />
            <mxPoint x="1230" y="880" as="targetPoint" />
          </mxGeometry>
        </mxCell>
        <mxCell id="BtDvIv-4-z1xUH_ccuP0-67" value="N" style="resizable=0;html=1;whiteSpace=wrap;align=left;verticalAlign=bottom;" connectable="0" vertex="1" parent="BtDvIv-4-z1xUH_ccuP0-66">
          <mxGeometry x="-1" relative="1" as="geometry">
            <mxPoint x="2" y="20" as="offset" />
          </mxGeometry>
        </mxCell>
        <mxCell id="BtDvIv-4-z1xUH_ccuP0-68" value="" style="resizable=0;html=1;whiteSpace=wrap;align=right;verticalAlign=bottom;" connectable="0" vertex="1" parent="BtDvIv-4-z1xUH_ccuP0-66">
          <mxGeometry x="1" relative="1" as="geometry" />
        </mxCell>
        <mxCell id="BtDvIv-4-z1xUH_ccuP0-69" value="" style="shape=link;html=1;rounded=0;" edge="1" parent="1">
          <mxGeometry relative="1" as="geometry">
            <mxPoint x="1230" y="880" as="sourcePoint" />
            <mxPoint x="1085" y="879.5" as="targetPoint" />
          </mxGeometry>
        </mxCell>
        <mxCell id="BtDvIv-4-z1xUH_ccuP0-70" value="" style="resizable=0;html=1;whiteSpace=wrap;align=left;verticalAlign=bottom;" connectable="0" vertex="1" parent="BtDvIv-4-z1xUH_ccuP0-69">
          <mxGeometry x="-1" relative="1" as="geometry" />
        </mxCell>
        <mxCell id="BtDvIv-4-z1xUH_ccuP0-71" value="" style="resizable=0;html=1;whiteSpace=wrap;align=right;verticalAlign=bottom;" connectable="0" vertex="1" parent="BtDvIv-4-z1xUH_ccuP0-69">
          <mxGeometry x="1" relative="1" as="geometry" />
        </mxCell>
        <mxCell id="BtDvIv-4-z1xUH_ccuP0-72" value="" style="endArrow=none;html=1;rounded=0;" edge="1" parent="1">
          <mxGeometry relative="1" as="geometry">
            <mxPoint x="1230" y="319.5" as="sourcePoint" />
            <mxPoint x="1386" y="320" as="targetPoint" />
          </mxGeometry>
        </mxCell>
        <mxCell id="BtDvIv-4-z1xUH_ccuP0-73" value="responsible" style="shape=rhombus;perimeter=rhombusPerimeter;whiteSpace=wrap;html=1;align=center;" vertex="1" parent="1">
          <mxGeometry x="1327" y="621" width="120" height="60" as="geometry" />
        </mxCell>
        <mxCell id="BtDvIv-4-z1xUH_ccuP0-74" value="" style="endArrow=none;html=1;rounded=0;entryX=0.5;entryY=0;entryDx=0;entryDy=0;" edge="1" parent="1">
          <mxGeometry relative="1" as="geometry">
            <mxPoint x="1386.5" y="320" as="sourcePoint" />
            <mxPoint x="1386.5" y="620" as="targetPoint" />
          </mxGeometry>
        </mxCell>
        <mxCell id="BtDvIv-4-z1xUH_ccuP0-75" value="1" style="resizable=0;html=1;whiteSpace=wrap;align=right;verticalAlign=bottom;" connectable="0" vertex="1" parent="BtDvIv-4-z1xUH_ccuP0-74">
          <mxGeometry x="1" relative="1" as="geometry" />
        </mxCell>
        <mxCell id="BtDvIv-4-z1xUH_ccuP0-76" value="" style="shape=link;html=1;rounded=0;" edge="1" parent="1">
          <mxGeometry relative="1" as="geometry">
            <mxPoint x="690" y="1080" as="sourcePoint" />
            <mxPoint x="690" y="899.5" as="targetPoint" />
          </mxGeometry>
        </mxCell>
        <mxCell id="BtDvIv-4-z1xUH_ccuP0-77" value="" style="resizable=0;html=1;whiteSpace=wrap;align=left;verticalAlign=bottom;" connectable="0" vertex="1" parent="BtDvIv-4-z1xUH_ccuP0-76">
          <mxGeometry x="-1" relative="1" as="geometry" />
        </mxCell>
        <mxCell id="BtDvIv-4-z1xUH_ccuP0-78" value="" style="resizable=0;html=1;whiteSpace=wrap;align=right;verticalAlign=bottom;" connectable="0" vertex="1" parent="BtDvIv-4-z1xUH_ccuP0-76">
          <mxGeometry x="1" relative="1" as="geometry" />
        </mxCell>
        <mxCell id="BtDvIv-4-z1xUH_ccuP0-79" value="" style="shape=link;html=1;rounded=0;" edge="1" parent="1">
          <mxGeometry relative="1" as="geometry">
            <mxPoint x="1386.5" y="681" as="sourcePoint" />
            <mxPoint x="1387" y="1080" as="targetPoint" />
          </mxGeometry>
        </mxCell>
        <mxCell id="BtDvIv-4-z1xUH_ccuP0-80" value="N" style="resizable=0;html=1;whiteSpace=wrap;align=left;verticalAlign=bottom;" connectable="0" vertex="1" parent="BtDvIv-4-z1xUH_ccuP0-79">
          <mxGeometry x="-1" relative="1" as="geometry">
            <mxPoint x="2" y="20" as="offset" />
          </mxGeometry>
        </mxCell>
        <mxCell id="BtDvIv-4-z1xUH_ccuP0-81" value="" style="resizable=0;html=1;whiteSpace=wrap;align=right;verticalAlign=bottom;" connectable="0" vertex="1" parent="BtDvIv-4-z1xUH_ccuP0-79">
          <mxGeometry x="1" relative="1" as="geometry" />
        </mxCell>
        <mxCell id="BtDvIv-4-z1xUH_ccuP0-82" value="" style="shape=link;html=1;rounded=0;" edge="1" parent="1">
          <mxGeometry relative="1" as="geometry">
            <mxPoint x="687" y="1079" as="sourcePoint" />
            <mxPoint x="1390" y="1079" as="targetPoint" />
          </mxGeometry>
        </mxCell>
        <mxCell id="BtDvIv-4-z1xUH_ccuP0-83" value="" style="resizable=0;html=1;whiteSpace=wrap;align=left;verticalAlign=bottom;" connectable="0" vertex="1" parent="BtDvIv-4-z1xUH_ccuP0-82">
          <mxGeometry x="-1" relative="1" as="geometry" />
        </mxCell>
        <mxCell id="BtDvIv-4-z1xUH_ccuP0-84" value="" style="resizable=0;html=1;whiteSpace=wrap;align=right;verticalAlign=bottom;" connectable="0" vertex="1" parent="BtDvIv-4-z1xUH_ccuP0-82">
          <mxGeometry x="1" relative="1" as="geometry" />
        </mxCell>
        <mxCell id="BtDvIv-4-z1xUH_ccuP0-86" value="" style="endArrow=none;html=1;rounded=0;entryX=0;entryY=1;entryDx=0;entryDy=0;exitX=1;exitY=0.5;exitDx=0;exitDy=0;" edge="1" parent="1" source="VO92zJyQnFq2b8o-OkfB-2" target="VO92zJyQnFq2b8o-OkfB-1">
          <mxGeometry relative="1" as="geometry">
            <mxPoint x="560" y="360" as="sourcePoint" />
            <mxPoint x="720" y="360" as="targetPoint" />
          </mxGeometry>
        </mxCell>
        <mxCell id="BtDvIv-4-z1xUH_ccuP0-87" value="" style="endArrow=none;html=1;rounded=0;exitX=0;exitY=0.25;exitDx=0;exitDy=0;" edge="1" parent="1" source="VO92zJyQnFq2b8o-OkfB-1">
          <mxGeometry relative="1" as="geometry">
            <mxPoint x="579.13" y="330" as="sourcePoint" />
            <mxPoint x="579.13" y="270" as="targetPoint" />
          </mxGeometry>
        </mxCell>
        <mxCell id="BtDvIv-4-z1xUH_ccuP0-88" value="" style="endArrow=none;html=1;rounded=0;exitX=1;exitY=1;exitDx=0;exitDy=0;" edge="1" parent="1">
          <mxGeometry relative="1" as="geometry">
            <mxPoint x="615.2006133129184" y="176.2037562490724" as="sourcePoint" />
            <mxPoint x="650" y="202" as="targetPoint" />
          </mxGeometry>
        </mxCell>
        <mxCell id="BtDvIv-4-z1xUH_ccuP0-90" value="" style="endArrow=none;html=1;rounded=0;exitX=0;exitY=1;exitDx=0;exitDy=0;" edge="1" parent="1" source="VO92zJyQnFq2b8o-OkfB-15">
          <mxGeometry relative="1" as="geometry">
            <mxPoint x="675.2006133129184" y="180.0037562490724" as="sourcePoint" />
            <mxPoint x="710" y="205.8" as="targetPoint" />
          </mxGeometry>
        </mxCell>
        <mxCell id="BtDvIv-4-z1xUH_ccuP0-91" value="" style="endArrow=none;html=1;rounded=0;exitX=0.373;exitY=-0.04;exitDx=0;exitDy=0;exitPerimeter=0;" edge="1" parent="1">
          <mxGeometry relative="1" as="geometry">
            <mxPoint x="1002.3" y="300" as="sourcePoint" />
            <mxPoint x="1001" y="201.6" as="targetPoint" />
          </mxGeometry>
        </mxCell>
        <mxCell id="BtDvIv-4-z1xUH_ccuP0-92" value="" style="endArrow=none;html=1;rounded=0;" edge="1" parent="1">
          <mxGeometry relative="1" as="geometry">
            <mxPoint x="950" y="260" as="sourcePoint" />
            <mxPoint x="990" y="300" as="targetPoint" />
          </mxGeometry>
        </mxCell>
        <mxCell id="BtDvIv-4-z1xUH_ccuP0-93" value="" style="endArrow=none;html=1;rounded=0;exitX=0.75;exitY=0;exitDx=0;exitDy=0;" edge="1" parent="1" source="VO92zJyQnFq2b8o-OkfB-16">
          <mxGeometry relative="1" as="geometry">
            <mxPoint x="990" y="260" as="sourcePoint" />
            <mxPoint x="1090" y="180" as="targetPoint" />
          </mxGeometry>
        </mxCell>
        <mxCell id="BtDvIv-4-z1xUH_ccuP0-94" value="" style="endArrow=none;html=1;rounded=0;" edge="1" parent="1">
          <mxGeometry relative="1" as="geometry">
            <mxPoint x="1072" y="300" as="sourcePoint" />
            <mxPoint x="1112" y="230" as="targetPoint" />
          </mxGeometry>
        </mxCell>
        <mxCell id="BtDvIv-4-z1xUH_ccuP0-95" value="" style="endArrow=none;html=1;rounded=0;entryX=0;entryY=1;entryDx=0;entryDy=0;" edge="1" parent="1" target="VO92zJyQnFq2b8o-OkfB-31">
          <mxGeometry relative="1" as="geometry">
            <mxPoint x="1074" y="310" as="sourcePoint" />
            <mxPoint x="1114" y="300" as="targetPoint" />
          </mxGeometry>
        </mxCell>
        <mxCell id="BtDvIv-4-z1xUH_ccuP0-96" value="" style="endArrow=none;html=1;rounded=0;entryX=0.119;entryY=-0.06;entryDx=0;entryDy=0;entryPerimeter=0;" edge="1" parent="1">
          <mxGeometry relative="1" as="geometry">
            <mxPoint x="964" y="562" as="sourcePoint" />
            <mxPoint x="991.8999999999999" y="569.5999999999999" as="targetPoint" />
          </mxGeometry>
        </mxCell>
        <mxCell id="BtDvIv-4-z1xUH_ccuP0-98" value="" style="endArrow=none;html=1;rounded=0;exitX=0.7;exitY=0;exitDx=0;exitDy=0;exitPerimeter=0;" edge="1" parent="1" source="VO92zJyQnFq2b8o-OkfB-34">
          <mxGeometry relative="1" as="geometry">
            <mxPoint x="950" y="660" as="sourcePoint" />
            <mxPoint x="1000" y="610" as="targetPoint" />
          </mxGeometry>
        </mxCell>
        <mxCell id="BtDvIv-4-z1xUH_ccuP0-99" value="" style="endArrow=none;html=1;rounded=0;entryX=0;entryY=0.5;entryDx=0;entryDy=0;exitX=0.95;exitY=0.329;exitDx=0;exitDy=0;exitPerimeter=0;" edge="1" parent="1" source="VO92zJyQnFq2b8o-OkfB-35">
          <mxGeometry relative="1" as="geometry">
            <mxPoint x="920" y="660" as="sourcePoint" />
            <mxPoint x="984" y="610" as="targetPoint" />
          </mxGeometry>
        </mxCell>
        <mxCell id="BtDvIv-4-z1xUH_ccuP0-100" value="" style="endArrow=none;html=1;rounded=0;entryX=0.045;entryY=0.274;entryDx=0;entryDy=0;entryPerimeter=0;exitX=0.25;exitY=0;exitDx=0;exitDy=0;" edge="1" parent="1" source="VO92zJyQnFq2b8o-OkfB-32" target="VO92zJyQnFq2b8o-OkfB-36">
          <mxGeometry relative="1" as="geometry">
            <mxPoint x="950" y="540" as="sourcePoint" />
            <mxPoint x="1110" y="540" as="targetPoint" />
          </mxGeometry>
        </mxCell>
        <mxCell id="BtDvIv-4-z1xUH_ccuP0-101" value="" style="endArrow=none;html=1;rounded=0;entryX=0;entryY=0.5;entryDx=0;entryDy=0;exitX=1;exitY=0.5;exitDx=0;exitDy=0;" edge="1" parent="1" source="VO92zJyQnFq2b8o-OkfB-41" target="VO92zJyQnFq2b8o-OkfB-32">
          <mxGeometry relative="1" as="geometry">
            <mxPoint x="890" y="540" as="sourcePoint" />
            <mxPoint x="1050" y="540" as="targetPoint" />
          </mxGeometry>
        </mxCell>
        <mxCell id="BtDvIv-4-z1xUH_ccuP0-102" value="" style="endArrow=none;html=1;rounded=0;exitX=0.5;exitY=0;exitDx=0;exitDy=0;" edge="1" parent="1" source="BtDvIv-4-z1xUH_ccuP0-13">
          <mxGeometry relative="1" as="geometry">
            <mxPoint x="890" y="800" as="sourcePoint" />
            <mxPoint x="1001" y="900" as="targetPoint" />
          </mxGeometry>
        </mxCell>
        <mxCell id="BtDvIv-4-z1xUH_ccuP0-103" value="" style="endArrow=none;html=1;rounded=0;exitX=1;exitY=1;exitDx=0;exitDy=0;" edge="1" parent="1" source="BtDvIv-4-z1xUH_ccuP0-2">
          <mxGeometry relative="1" as="geometry">
            <mxPoint x="890" y="800" as="sourcePoint" />
            <mxPoint x="1130" y="920" as="targetPoint" />
          </mxGeometry>
        </mxCell>
        <mxCell id="BtDvIv-4-z1xUH_ccuP0-104" value="" style="endArrow=none;html=1;rounded=0;exitX=0.75;exitY=1;exitDx=0;exitDy=0;entryX=0.042;entryY=0.295;entryDx=0;entryDy=0;entryPerimeter=0;" edge="1" parent="1" source="BtDvIv-4-z1xUH_ccuP0-2" target="BtDvIv-4-z1xUH_ccuP0-6">
          <mxGeometry relative="1" as="geometry">
            <mxPoint x="1094" y="910" as="sourcePoint" />
            <mxPoint x="1140" y="930" as="targetPoint" />
          </mxGeometry>
        </mxCell>
        <mxCell id="BtDvIv-4-z1xUH_ccuP0-105" value="" style="endArrow=none;html=1;rounded=0;exitX=0.5;exitY=1;exitDx=0;exitDy=0;entryX=0.48;entryY=0;entryDx=0;entryDy=0;entryPerimeter=0;" edge="1" parent="1" source="BtDvIv-4-z1xUH_ccuP0-2" target="BtDvIv-4-z1xUH_ccuP0-8">
          <mxGeometry relative="1" as="geometry">
            <mxPoint x="1069" y="910" as="sourcePoint" />
            <mxPoint x="1154" y="982" as="targetPoint" />
          </mxGeometry>
        </mxCell>
        <mxCell id="BtDvIv-4-z1xUH_ccuP0-107" value="" style="endArrow=none;html=1;rounded=0;exitX=0.645;exitY=0.992;exitDx=0;exitDy=0;exitPerimeter=0;entryX=0.134;entryY=0.029;entryDx=0;entryDy=0;entryPerimeter=0;" edge="1" parent="1" source="BtDvIv-4-z1xUH_ccuP0-19" target="BtDvIv-4-z1xUH_ccuP0-11">
          <mxGeometry relative="1" as="geometry">
            <mxPoint x="640" y="800" as="sourcePoint" />
            <mxPoint x="800" y="800" as="targetPoint" />
          </mxGeometry>
        </mxCell>
        <mxCell id="BtDvIv-4-z1xUH_ccuP0-108" value="" style="endArrow=none;html=1;rounded=0;exitX=0.982;exitY=0.366;exitDx=0;exitDy=0;exitPerimeter=0;entryX=0;entryY=1;entryDx=0;entryDy=0;" edge="1" parent="1" source="BtDvIv-4-z1xUH_ccuP0-20" target="BtDvIv-4-z1xUH_ccuP0-11">
          <mxGeometry relative="1" as="geometry">
            <mxPoint x="640" y="800" as="sourcePoint" />
            <mxPoint x="623" y="900" as="targetPoint" />
          </mxGeometry>
        </mxCell>
        <mxCell id="BtDvIv-4-z1xUH_ccuP0-109" value="" style="endArrow=none;html=1;rounded=0;entryX=0.37;entryY=0.012;entryDx=0;entryDy=0;entryPerimeter=0;exitX=0.934;exitY=0.986;exitDx=0;exitDy=0;exitPerimeter=0;" edge="1" parent="1" source="BtDvIv-4-z1xUH_ccuP0-11" target="BtDvIv-4-z1xUH_ccuP0-21">
          <mxGeometry relative="1" as="geometry">
            <mxPoint x="640" y="890" as="sourcePoint" />
            <mxPoint x="800" y="890" as="targetPoint" />
          </mxGeometry>
        </mxCell>
        <mxCell id="BtDvIv-4-z1xUH_ccuP0-110" value="" style="endArrow=none;html=1;rounded=0;exitX=0.25;exitY=1;exitDx=0;exitDy=0;" edge="1" parent="1" source="BtDvIv-4-z1xUH_ccuP0-11" target="BtDvIv-4-z1xUH_ccuP0-22">
          <mxGeometry relative="1" as="geometry">
            <mxPoint x="640" y="890" as="sourcePoint" />
            <mxPoint x="800" y="890" as="targetPoint" />
          </mxGeometry>
        </mxCell>
        <mxCell id="BtDvIv-4-z1xUH_ccuP0-111" value="" style="endArrow=none;html=1;rounded=0;exitX=1;exitY=0;exitDx=0;exitDy=0;entryX=0;entryY=1;entryDx=0;entryDy=0;" edge="1" parent="1" source="BtDvIv-4-z1xUH_ccuP0-34" target="BtDvIv-4-z1xUH_ccuP0-27">
          <mxGeometry relative="1" as="geometry">
            <mxPoint x="690" y="540" as="sourcePoint" />
            <mxPoint x="850" y="540" as="targetPoint" />
          </mxGeometry>
        </mxCell>
        <mxCell id="BtDvIv-4-z1xUH_ccuP0-112" value="" style="endArrow=none;html=1;rounded=0;exitX=0.3;exitY=0.981;exitDx=0;exitDy=0;exitPerimeter=0;entryX=0.77;entryY=0;entryDx=0;entryDy=0;entryPerimeter=0;" edge="1" parent="1" source="BtDvIv-4-z1xUH_ccuP0-33" target="BtDvIv-4-z1xUH_ccuP0-11">
          <mxGeometry relative="1" as="geometry">
            <mxPoint x="690" y="540" as="sourcePoint" />
            <mxPoint x="712" y="858" as="targetPoint" />
          </mxGeometry>
        </mxCell>
        <mxCell id="BtDvIv-4-z1xUH_ccuP0-113" value="" style="endArrow=none;html=1;rounded=0;exitX=0.77;exitY=0.081;exitDx=0;exitDy=0;exitPerimeter=0;entryX=0;entryY=1;entryDx=0;entryDy=0;" edge="1" parent="1" source="BtDvIv-4-z1xUH_ccuP0-42" target="BtDvIv-4-z1xUH_ccuP0-41">
          <mxGeometry relative="1" as="geometry">
            <mxPoint x="290" y="790" as="sourcePoint" />
            <mxPoint x="450" y="790" as="targetPoint" />
          </mxGeometry>
        </mxCell>
        <mxCell id="BtDvIv-4-z1xUH_ccuP0-114" value="" style="endArrow=none;html=1;rounded=0;exitX=1;exitY=0.5;exitDx=0;exitDy=0;entryX=0;entryY=0.5;entryDx=0;entryDy=0;" edge="1" parent="1" source="BtDvIv-4-z1xUH_ccuP0-44" target="BtDvIv-4-z1xUH_ccuP0-41">
          <mxGeometry relative="1" as="geometry">
            <mxPoint x="290" y="790" as="sourcePoint" />
            <mxPoint x="450" y="790" as="targetPoint" />
          </mxGeometry>
        </mxCell>
        <mxCell id="BtDvIv-4-z1xUH_ccuP0-115" value="" style="endArrow=none;html=1;rounded=0;exitX=0.5;exitY=0;exitDx=0;exitDy=0;entryX=0.5;entryY=1;entryDx=0;entryDy=0;" edge="1" parent="1" source="BtDvIv-4-z1xUH_ccuP0-43" target="BtDvIv-4-z1xUH_ccuP0-41">
          <mxGeometry relative="1" as="geometry">
            <mxPoint x="290" y="790" as="sourcePoint" />
            <mxPoint x="450" y="790" as="targetPoint" />
          </mxGeometry>
        </mxCell>
      </root>
    </mxGraphModel>
  </diagram>
</mxfile>
